<mxfile host="app.diagrams.net" modified="2023-08-08T08:26:48.630Z" agent="Mozilla/5.0 (Macintosh; Intel Mac OS X 10_15_7) AppleWebKit/537.36 (KHTML, like Gecko) Chrome/115.0.0.0 Safari/537.36" etag="Sdx1QgsDCKGLJkIbFctR" version="21.6.6" type="github">
  <diagram name="调用链路" id="Lr2nZqK2E54NiZKOLUjm">
    <mxGraphModel dx="1434" dy="790" grid="1" gridSize="10" guides="1" tooltips="1" connect="1" arrows="1" fold="1" page="1" pageScale="1" pageWidth="827" pageHeight="1169" math="0" shadow="0">
      <root>
        <mxCell id="0" />
        <mxCell id="1" parent="0" />
        <mxCell id="_1bM7Vzk3lpORluig_xV-5" value="调用链路" style="swimlane;childLayout=stackLayout;resizeParent=1;resizeParentMax=0;startSize=20;html=1;" vertex="1" parent="1">
          <mxGeometry x="210" y="110" width="940" height="690" as="geometry" />
        </mxCell>
        <mxCell id="_1bM7Vzk3lpORluig_xV-10" value="WEB页面" style="swimlane;startSize=20;html=1;fontSize=12;" vertex="1" parent="_1bM7Vzk3lpORluig_xV-5">
          <mxGeometry y="20" width="180" height="670" as="geometry" />
        </mxCell>
        <mxCell id="_1bM7Vzk3lpORluig_xV-18" value="案件&lt;br&gt;发起人机耦合" style="rounded=0;whiteSpace=wrap;html=1;" vertex="1" parent="_1bM7Vzk3lpORluig_xV-10">
          <mxGeometry x="15" y="220" width="90" height="40" as="geometry" />
        </mxCell>
        <mxCell id="_1bM7Vzk3lpORluig_xV-6" value="电销系统" style="swimlane;startSize=20;html=1;fontSize=12;" vertex="1" parent="_1bM7Vzk3lpORluig_xV-5">
          <mxGeometry x="180" y="20" width="160" height="670" as="geometry" />
        </mxCell>
        <mxCell id="_1bM7Vzk3lpORluig_xV-21" value="案件&lt;br&gt;发起人机耦合" style="rounded=0;whiteSpace=wrap;html=1;" vertex="1" parent="_1bM7Vzk3lpORluig_xV-6">
          <mxGeometry x="25" y="220" width="90" height="40" as="geometry" />
        </mxCell>
        <mxCell id="_1bM7Vzk3lpORluig_xV-7" value="Notification" style="swimlane;startSize=20;html=1;fontSize=12;" vertex="1" parent="_1bM7Vzk3lpORluig_xV-5">
          <mxGeometry x="340" y="20" width="150" height="670" as="geometry" />
        </mxCell>
        <mxCell id="_1bM7Vzk3lpORluig_xV-23" value="发起94 AI外呼" style="rounded=0;whiteSpace=wrap;html=1;" vertex="1" parent="_1bM7Vzk3lpORluig_xV-7">
          <mxGeometry x="20" y="220" width="90" height="40" as="geometry" />
        </mxCell>
        <mxCell id="_1bM7Vzk3lpORluig_xV-9" value="YTalk" style="swimlane;startSize=20;html=1;fontSize=12;" vertex="1" parent="_1bM7Vzk3lpORluig_xV-5">
          <mxGeometry x="490" y="20" width="170" height="670" as="geometry" />
        </mxCell>
        <mxCell id="_1bM7Vzk3lpORluig_xV-44" value="接收信令和弹屏消息" style="rounded=0;whiteSpace=wrap;html=1;" vertex="1" parent="_1bM7Vzk3lpORluig_xV-9">
          <mxGeometry x="20" y="460" width="120" height="40" as="geometry" />
        </mxCell>
        <mxCell id="_1bM7Vzk3lpORluig_xV-80" value="空闲坐席数&lt;br&gt;在线坐席数" style="rounded=0;whiteSpace=wrap;html=1;" vertex="1" parent="_1bM7Vzk3lpORluig_xV-9">
          <mxGeometry x="40" y="80" width="90" height="40" as="geometry" />
        </mxCell>
        <mxCell id="_1bM7Vzk3lpORluig_xV-22" style="edgeStyle=orthogonalEdgeStyle;rounded=0;orthogonalLoop=1;jettySize=auto;html=1;exitX=1;exitY=0.5;exitDx=0;exitDy=0;entryX=0;entryY=0.5;entryDx=0;entryDy=0;" edge="1" parent="_1bM7Vzk3lpORluig_xV-5" source="_1bM7Vzk3lpORluig_xV-18" target="_1bM7Vzk3lpORluig_xV-21">
          <mxGeometry relative="1" as="geometry" />
        </mxCell>
        <mxCell id="_1bM7Vzk3lpORluig_xV-24" style="edgeStyle=orthogonalEdgeStyle;rounded=0;orthogonalLoop=1;jettySize=auto;html=1;exitX=1;exitY=0.5;exitDx=0;exitDy=0;entryX=0;entryY=0.5;entryDx=0;entryDy=0;" edge="1" parent="_1bM7Vzk3lpORluig_xV-5" source="_1bM7Vzk3lpORluig_xV-21" target="_1bM7Vzk3lpORluig_xV-23">
          <mxGeometry relative="1" as="geometry" />
        </mxCell>
        <mxCell id="_1bM7Vzk3lpORluig_xV-26" style="edgeStyle=orthogonalEdgeStyle;rounded=0;orthogonalLoop=1;jettySize=auto;html=1;exitX=1;exitY=0.5;exitDx=0;exitDy=0;entryX=0;entryY=0.5;entryDx=0;entryDy=0;" edge="1" parent="_1bM7Vzk3lpORluig_xV-5" source="_1bM7Vzk3lpORluig_xV-23" target="_1bM7Vzk3lpORluig_xV-25">
          <mxGeometry relative="1" as="geometry" />
        </mxCell>
        <mxCell id="_1bM7Vzk3lpORluig_xV-27" value="API导入号码" style="edgeLabel;html=1;align=center;verticalAlign=middle;resizable=0;points=[];" vertex="1" connectable="0" parent="_1bM7Vzk3lpORluig_xV-26">
          <mxGeometry x="-0.0323" y="-3" relative="1" as="geometry">
            <mxPoint y="-3" as="offset" />
          </mxGeometry>
        </mxCell>
        <mxCell id="_1bM7Vzk3lpORluig_xV-45" style="edgeStyle=orthogonalEdgeStyle;rounded=0;orthogonalLoop=1;jettySize=auto;html=1;" edge="1" parent="_1bM7Vzk3lpORluig_xV-5" source="_1bM7Vzk3lpORluig_xV-35" target="_1bM7Vzk3lpORluig_xV-44">
          <mxGeometry relative="1" as="geometry" />
        </mxCell>
        <mxCell id="_1bM7Vzk3lpORluig_xV-46" value="是&lt;br&gt;SIP转接" style="edgeLabel;html=1;align=center;verticalAlign=middle;resizable=0;points=[];" vertex="1" connectable="0" parent="_1bM7Vzk3lpORluig_xV-45">
          <mxGeometry x="-0.2" y="1" relative="1" as="geometry">
            <mxPoint as="offset" />
          </mxGeometry>
        </mxCell>
        <mxCell id="_1bM7Vzk3lpORluig_xV-8" value="94系统" style="swimlane;startSize=20;html=1;fontSize=12;" vertex="1" parent="_1bM7Vzk3lpORluig_xV-5">
          <mxGeometry x="660" y="20" width="280" height="670" as="geometry" />
        </mxCell>
        <mxCell id="_1bM7Vzk3lpORluig_xV-29" value="" style="edgeStyle=orthogonalEdgeStyle;rounded=0;orthogonalLoop=1;jettySize=auto;html=1;" edge="1" parent="_1bM7Vzk3lpORluig_xV-8" source="_1bM7Vzk3lpORluig_xV-25" target="_1bM7Vzk3lpORluig_xV-28">
          <mxGeometry relative="1" as="geometry" />
        </mxCell>
        <mxCell id="_1bM7Vzk3lpORluig_xV-25" value="启动AI外呼任务" style="rounded=0;whiteSpace=wrap;html=1;" vertex="1" parent="_1bM7Vzk3lpORluig_xV-8">
          <mxGeometry x="30" y="220" width="90" height="40" as="geometry" />
        </mxCell>
        <mxCell id="_1bM7Vzk3lpORluig_xV-31" style="edgeStyle=orthogonalEdgeStyle;rounded=0;orthogonalLoop=1;jettySize=auto;html=1;entryX=0;entryY=0.5;entryDx=0;entryDy=0;" edge="1" parent="_1bM7Vzk3lpORluig_xV-8" source="_1bM7Vzk3lpORluig_xV-28" target="_1bM7Vzk3lpORluig_xV-33">
          <mxGeometry relative="1" as="geometry">
            <mxPoint x="170" y="350" as="targetPoint" />
          </mxGeometry>
        </mxCell>
        <mxCell id="_1bM7Vzk3lpORluig_xV-32" value="否" style="edgeLabel;html=1;align=center;verticalAlign=middle;resizable=0;points=[];" vertex="1" connectable="0" parent="_1bM7Vzk3lpORluig_xV-31">
          <mxGeometry x="-0.2889" y="-1" relative="1" as="geometry">
            <mxPoint as="offset" />
          </mxGeometry>
        </mxCell>
        <mxCell id="_1bM7Vzk3lpORluig_xV-36" style="edgeStyle=orthogonalEdgeStyle;rounded=0;orthogonalLoop=1;jettySize=auto;html=1;" edge="1" parent="_1bM7Vzk3lpORluig_xV-8" source="_1bM7Vzk3lpORluig_xV-28" target="_1bM7Vzk3lpORluig_xV-35">
          <mxGeometry relative="1" as="geometry" />
        </mxCell>
        <mxCell id="_1bM7Vzk3lpORluig_xV-42" value="是" style="edgeLabel;html=1;align=center;verticalAlign=middle;resizable=0;points=[];" vertex="1" connectable="0" parent="_1bM7Vzk3lpORluig_xV-36">
          <mxGeometry x="-0.2" y="-1" relative="1" as="geometry">
            <mxPoint as="offset" />
          </mxGeometry>
        </mxCell>
        <mxCell id="_1bM7Vzk3lpORluig_xV-28" value="是否转人工" style="rhombus;whiteSpace=wrap;html=1;rounded=0;" vertex="1" parent="_1bM7Vzk3lpORluig_xV-8">
          <mxGeometry x="35" y="320" width="80" height="60" as="geometry" />
        </mxCell>
        <mxCell id="_1bM7Vzk3lpORluig_xV-30" value="结束" style="strokeWidth=2;html=1;shape=mxgraph.flowchart.terminator;whiteSpace=wrap;" vertex="1" parent="_1bM7Vzk3lpORluig_xV-8">
          <mxGeometry x="200" y="400" width="50" height="25" as="geometry" />
        </mxCell>
        <mxCell id="_1bM7Vzk3lpORluig_xV-34" style="edgeStyle=orthogonalEdgeStyle;rounded=0;orthogonalLoop=1;jettySize=auto;html=1;entryX=0.5;entryY=0;entryDx=0;entryDy=0;entryPerimeter=0;" edge="1" parent="_1bM7Vzk3lpORluig_xV-8" source="_1bM7Vzk3lpORluig_xV-33" target="_1bM7Vzk3lpORluig_xV-30">
          <mxGeometry relative="1" as="geometry" />
        </mxCell>
        <mxCell id="_1bM7Vzk3lpORluig_xV-33" value="AI完成对话" style="rounded=0;whiteSpace=wrap;html=1;" vertex="1" parent="_1bM7Vzk3lpORluig_xV-8">
          <mxGeometry x="190" y="330" width="70" height="40" as="geometry" />
        </mxCell>
        <mxCell id="_1bM7Vzk3lpORluig_xV-40" style="edgeStyle=orthogonalEdgeStyle;rounded=0;orthogonalLoop=1;jettySize=auto;html=1;" edge="1" parent="_1bM7Vzk3lpORluig_xV-8" source="_1bM7Vzk3lpORluig_xV-35" target="_1bM7Vzk3lpORluig_xV-39">
          <mxGeometry relative="1" as="geometry" />
        </mxCell>
        <mxCell id="_1bM7Vzk3lpORluig_xV-43" value="否" style="edgeLabel;html=1;align=center;verticalAlign=middle;resizable=0;points=[];" vertex="1" connectable="0" parent="_1bM7Vzk3lpORluig_xV-40">
          <mxGeometry x="-0.2" y="-2" relative="1" as="geometry">
            <mxPoint as="offset" />
          </mxGeometry>
        </mxCell>
        <mxCell id="_1bM7Vzk3lpORluig_xV-35" value="是否AICC" style="rhombus;whiteSpace=wrap;html=1;rounded=0;" vertex="1" parent="_1bM7Vzk3lpORluig_xV-8">
          <mxGeometry x="35" y="450" width="80" height="60" as="geometry" />
        </mxCell>
        <mxCell id="_1bM7Vzk3lpORluig_xV-41" style="edgeStyle=orthogonalEdgeStyle;rounded=0;orthogonalLoop=1;jettySize=auto;html=1;exitX=0.5;exitY=0;exitDx=0;exitDy=0;entryX=0.5;entryY=1;entryDx=0;entryDy=0;entryPerimeter=0;" edge="1" parent="_1bM7Vzk3lpORluig_xV-8" source="_1bM7Vzk3lpORluig_xV-39" target="_1bM7Vzk3lpORluig_xV-30">
          <mxGeometry relative="1" as="geometry" />
        </mxCell>
        <mxCell id="_1bM7Vzk3lpORluig_xV-39" value="94人工坐席" style="rounded=0;whiteSpace=wrap;html=1;" vertex="1" parent="_1bM7Vzk3lpORluig_xV-8">
          <mxGeometry x="190" y="460" width="70" height="40" as="geometry" />
        </mxCell>
        <mxCell id="_1bM7Vzk3lpORluig_xV-47" value="计算任务并发数量" style="rounded=0;whiteSpace=wrap;html=1;" vertex="1" parent="_1bM7Vzk3lpORluig_xV-8">
          <mxGeometry x="95" y="80" width="115" height="40" as="geometry" />
        </mxCell>
        <mxCell id="_1bM7Vzk3lpORluig_xV-81" style="edgeStyle=orthogonalEdgeStyle;rounded=0;orthogonalLoop=1;jettySize=auto;html=1;entryX=1;entryY=0.5;entryDx=0;entryDy=0;" edge="1" parent="_1bM7Vzk3lpORluig_xV-5" source="_1bM7Vzk3lpORluig_xV-47" target="_1bM7Vzk3lpORluig_xV-80">
          <mxGeometry relative="1" as="geometry" />
        </mxCell>
        <mxCell id="_1bM7Vzk3lpORluig_xV-82" value="" style="endArrow=none;html=1;rounded=0;entryX=1;entryY=0.25;entryDx=0;entryDy=0;exitX=0;exitY=0.25;exitDx=0;exitDy=0;" edge="1" parent="_1bM7Vzk3lpORluig_xV-5" source="_1bM7Vzk3lpORluig_xV-10" target="_1bM7Vzk3lpORluig_xV-8">
          <mxGeometry width="50" height="50" relative="1" as="geometry">
            <mxPoint y="210" as="sourcePoint" />
            <mxPoint x="50" y="160" as="targetPoint" />
          </mxGeometry>
        </mxCell>
        <mxCell id="_1bM7Vzk3lpORluig_xV-83" value="初始化" style="edgeLabel;html=1;align=center;verticalAlign=middle;resizable=0;points=[];" vertex="1" connectable="0" parent="_1bM7Vzk3lpORluig_xV-82">
          <mxGeometry x="-0.9596" relative="1" as="geometry">
            <mxPoint x="1" y="-7" as="offset" />
          </mxGeometry>
        </mxCell>
        <mxCell id="_1bM7Vzk3lpORluig_xV-20" style="edgeStyle=orthogonalEdgeStyle;rounded=0;orthogonalLoop=1;jettySize=auto;html=1;entryX=0;entryY=0.5;entryDx=0;entryDy=0;" edge="1" parent="1" source="_1bM7Vzk3lpORluig_xV-19" target="_1bM7Vzk3lpORluig_xV-18">
          <mxGeometry relative="1" as="geometry">
            <mxPoint x="230" y="360" as="targetPoint" />
          </mxGeometry>
        </mxCell>
        <mxCell id="_1bM7Vzk3lpORluig_xV-19" value="Actor" style="shape=umlActor;verticalLabelPosition=bottom;verticalAlign=top;html=1;outlineConnect=0;" vertex="1" parent="1">
          <mxGeometry x="110" y="340" width="30" height="60" as="geometry" />
        </mxCell>
      </root>
    </mxGraphModel>
  </diagram>
</mxfile>
